<svg width="720" height="360" viewBox="0 0 720 360" fill="none" xmlns="http://www.w3.org/2000/svg"><defs><linearGradient id="b" x1="200" y1="130" x2="520" y2="265"><stop stop-color="#E9F0EC"/><stop offset=".4" stop-color="#7C8D84"/><stop offset="1" stop-color="#1D2520"/></linearGradient><filter id="s" x="80" y="45" width="580" height="290"><feGaussianBlur in="SourceAlpha" stdDeviation="12"/><feOffset dy="15"/><feColorMatrix values="0 0 0 0 0 0 0 0 0 0 0 0 0 0 0 0 0 0 .58 0"/><feBlend in2="SourceGraphic"/></filter></defs><ellipse cx="360" cy="292" rx="225" ry="22" fill="#000" fill-opacity=".44"/><g filter="url(#s)"><path d="M159 235C225 210 282 213 335 238C397 267 459 267 552 229" stroke="#4EAED1" stroke-width="16" stroke-linecap="round"/><path d="M170 264C238 244 295 247 344 266C408 291 467 285 548 256" stroke="#2B6B82" stroke-width="8" stroke-linecap="round"/><path d="M253 224L324 146L447 150L498 224H253Z" fill="url(#b)" stroke="#111611" stroke-width="8"/><path d="M325 146L350 107H416L445 150" fill="#19231E" stroke="#56645B" stroke-width="6"/><path d="M350 107H416" stroke="#A9CAD1" stroke-width="7" stroke-linecap="round"/><path d="M275 205H472" stroke="#D7FF57" stroke-width="7" stroke-linecap="round"/><path d="M462 153L495 118" stroke="#E2E8E3" stroke-width="8" stroke-linecap="round"/><path d="M494 118L523 122" stroke="#1A211C" stroke-width="9" stroke-linecap="round"/><path d="M295 154L268 122" stroke="#E2E8E3" stroke-width="8" stroke-linecap="round"/><circle cx="378" cy="205" r="13" fill="#D7FF57" stroke="#172019" stroke-width="6"/></g></svg>