<svg width="720" height="360" viewBox="0 0 720 360" fill="none" xmlns="http://www.w3.org/2000/svg"><defs><linearGradient id="r" x1="300" y1="80" x2="430" y2="270"><stop stop-color="#F0F4F1"/><stop offset=".45" stop-color="#89958D"/><stop offset="1" stop-color="#202722"/></linearGradient><filter id="s" x="100" y="50" width="520" height="280"><feGaussianBlur in="SourceAlpha" stdDeviation="12"/><feOffset dy="15"/><feColorMatrix values="0 0 0 0 0 0 0 0 0 0 0 0 0 0 0 0 0 0 .58 0"/><feBlend in2="SourceGraphic"/></filter></defs><ellipse cx="360" cy="290" rx="210" ry="22" fill="#000" fill-opacity=".43"/><g filter="url(#s)"><path d="M217 246L307 236L358 254L441 230L506 246" stroke="#4EAED1" stroke-width="11" stroke-linecap="round"/><path d="M184 267H530" stroke="#263029" stroke-width="28" stroke-linecap="round"/><path d="M226 218V280M474 208V280" stroke="#7B6545" stroke-width="18" stroke-linecap="round"/><path d="M311 234C327 179 351 131 407 90" stroke="url(#r)" stroke-width="9" stroke-linecap="round"/><path d="M407 90C442 121 456 161 451 198" stroke="#D7FF57" stroke-width="5" stroke-linecap="round"/><path d="M451 198V248" stroke="#DDE4DF" stroke-width="3"/><circle cx="451" cy="253" r="8" fill="#D7FF57"/><path d="M311 234L284 259" stroke="#DDE4DF" stroke-width="8" stroke-linecap="round"/><path d="M312 235L338 261" stroke="#DDE4DF" stroke-width="8" stroke-linecap="round"/></g></svg>