<svg width="720" height="360" viewBox="0 0 720 360" fill="none" xmlns="http://www.w3.org/2000/svg"><defs><linearGradient id="b" x1="185" y1="110" x2="530" y2="265"><stop stop-color="#F5F7F5"/><stop offset=".38" stop-color="#95A19A"/><stop offset="1" stop-color="#18201B"/></linearGradient><linearGradient id="f" x1="402" y1="190" x2="548" y2="248"><stop stop-color="#D7FF57"/><stop offset="1" stop-color="#5F7E19"/></linearGradient><filter id="s" x="70" y="35" width="590" height="310"><feGaussianBlur in="SourceAlpha" stdDeviation="13"/><feOffset dy="16"/><feColorMatrix values="0 0 0 0 0 0 0 0 0 0 0 0 0 0 0 0 0 0 .62 0"/><feBlend in2="SourceGraphic"/></filter></defs><ellipse cx="360" cy="294" rx="235" ry="23" fill="#000" fill-opacity=".46"/><g filter="url(#s)"><path d="M144 239C218 206 280 207 337 238C404 274 471 269 574 222" stroke="#347C9C" stroke-width="17" stroke-linecap="round"/><path d="M163 268C231 247 286 251 337 274C405 304 470 294 557 258" stroke="#19495D" stroke-width="9" stroke-linecap="round"/><path d="M219 223L284 146L437 149L508 223H219Z" fill="url(#b)" stroke="#0D120E" stroke-width="9"/><path d="M303 147L333 98H408L441 150" fill="#17221D" stroke="#56645B" stroke-width="6"/><path d="M333 98H408" stroke="#9FC6D2" stroke-width="8" stroke-linecap="round"/><path d="M250 203H480" stroke="#D7FF57" stroke-width="8" stroke-linecap="round"/><path d="M445 153L486 108" stroke="#E7ECE8" stroke-width="8" stroke-linecap="round"/><path d="M485 108L520 112" stroke="#18201B" stroke-width="9" stroke-linecap="round"/><path d="M410 227C445 193 495 190 535 216C509 244 455 250 410 227Z" fill="url(#f)" stroke="#111611" stroke-width="6"/><circle cx="496" cy="216" r="5" fill="#0B100C"/><path d="M410 227L383 211M410 227L386 242" stroke="#D7FF57" stroke-width="7" stroke-linecap="round"/></g></svg>