<svg width="720" height="360" viewBox="0 0 720 360" fill="none" xmlns="http://www.w3.org/2000/svg"><defs><linearGradient id="a" x1="165" y1="110" x2="530" y2="250"><stop stop-color="#C9D1C7"/><stop offset=".4" stop-color="#667268"/><stop offset="1" stop-color="#192019"/></linearGradient><filter id="s" x="70" y="45" width="590" height="290"><feGaussianBlur in="SourceAlpha" stdDeviation="12"/><feOffset dy="15"/><feColorMatrix values="0 0 0 0 0 0 0 0 0 0 0 0 0 0 0 0 0 0 .6 0"/><feBlend in2="SourceGraphic"/></filter></defs><ellipse cx="360" cy="290" rx="235" ry="23" fill="#000" fill-opacity=".45"/><g><path d="M116 205L290 173L375 101L430 113L405 166L572 183L606 207L406 219L333 266L279 253L324 214L147 226L116 205Z" fill="url(#a)" stroke="#0E130F" stroke-width="9"/><path d="M238 186L454 172" stroke="#D7FF57" stroke-width="7" stroke-linecap="round"/><path d="M478 178L550 188" stroke="#D7FF57" stroke-opacity=".65" stroke-width="7" stroke-linecap="round"/><rect x="284" y="203" width="54" height="45" rx="7" fill="#39483D" stroke="#AEB9AF" stroke-width="4"/><rect x="342" y="197" width="58" height="50" rx="7" fill="#2C3A31" stroke="#AEB9AF" stroke-width="4"/><path d="M299 214H323M356 210H386" stroke="#D7FF57" stroke-width="5" stroke-linecap="round"/><circle cx="383" cy="179" r="9" fill="#D7FF57"/></g></svg>