<svg width="720" height="360" viewBox="0 0 720 360" fill="none" xmlns="http://www.w3.org/2000/svg"><defs><linearGradient id="a" x1="160" y1="100" x2="540" y2="250"><stop stop-color="#F6F8F6"/><stop offset=".42" stop-color="#AAB5AE"/><stop offset="1" stop-color="#202722"/></linearGradient><filter id="s" x="70" y="45" width="590" height="290"><feGaussianBlur in="SourceAlpha" stdDeviation="12"/><feOffset dy="15"/><feColorMatrix values="0 0 0 0 0 0 0 0 0 0 0 0 0 0 0 0 0 0 .58 0"/><feBlend in2="SourceGraphic"/></filter></defs><ellipse cx="360" cy="288" rx="235" ry="23" fill="#000" fill-opacity=".44"/><g filter="url(#s)"><path d="M104 205L286 177L390 102L432 114L405 171L575 185L616 208L405 220L326 261L286 251L331 214L139 226L104 205Z" fill="url(#a)" stroke="#111611" stroke-width="8"/><path d="M187 195L501 178" stroke="#D7FF57" stroke-width="7" stroke-linecap="round"/><path d="M472 178L552 186" stroke="#D7FF57" stroke-opacity=".55" stroke-width="7" stroke-linecap="round"/><path d="M244 188H410" stroke="#6DB6FF" stroke-width="5" stroke-linecap="round" stroke-dasharray="3 14"/><path d="M406 115L450 96L462 106L431 130" fill="#E6ECE8" stroke="#1A211C" stroke-width="6"/><circle cx="388" cy="180" r="8" fill="#D7FF57"/></g></svg>