<svg width="720" height="360" viewBox="0 0 720 360" fill="none" xmlns="http://www.w3.org/2000/svg"><defs><linearGradient id="a" x1="180" y1="120" x2="500" y2="250"><stop stop-color="#F1F5F2"/><stop offset=".45" stop-color="#87928B"/><stop offset="1" stop-color="#202722"/></linearGradient><filter id="s" x="80" y="40" width="570" height="290"><feGaussianBlur in="SourceAlpha" stdDeviation="12"/><feOffset dy="15"/><feColorMatrix values="0 0 0 0 0 0 0 0 0 0 0 0 0 0 0 0 0 0 .58 0"/><feBlend in2="SourceGraphic"/></filter></defs><ellipse cx="350" cy="286" rx="225" ry="22" fill="#000" fill-opacity=".43"/><g><path d="M145 204L290 174L391 106L432 119L397 171L555 184L580 207L395 217L323 259L284 250L324 214L174 223L145 204Z" fill="url(#a)" stroke="#111611" stroke-width="8"/><path d="M255 182L367 151" stroke="#D7FF57" stroke-width="7" stroke-linecap="round"/><path d="M505 187L548 191" stroke="#D7FF57" stroke-width="7" stroke-linecap="round"/><path d="M468 88C501 88 526 109 526 136H410C410 109 435 88 468 88Z" fill="#D7FF57" fill-opacity=".92" stroke="#111611" stroke-width="6"/><path d="M468 136V196" stroke="#E4EAE5" stroke-width="6"/><circle cx="468" cy="207" r="12" fill="#D7FF57"/><path d="M468 219L446 254M468 219L492 251M468 226L439 230M468 226L498 230" stroke="#E4EAE5" stroke-width="7" stroke-linecap="round"/></g></svg>