<svg width="720" height="360" viewBox="0 0 720 360" fill="none" xmlns="http://www.w3.org/2000/svg"><defs><linearGradient id="a" x1="180" y1="115" x2="520" y2="245"><stop stop-color="#F4F6F3"/><stop offset=".38" stop-color="#9AA49E"/><stop offset="1" stop-color="#202722"/></linearGradient><filter id="s" x="80" y="50" width="570" height="280"><feGaussianBlur in="SourceAlpha" stdDeviation="12"/><feOffset dy="15"/><feColorMatrix values="0 0 0 0 0 0 0 0 0 0 0 0 0 0 0 0 0 0 .58 0"/><feBlend in2="SourceGraphic"/></filter></defs><ellipse cx="360" cy="286" rx="220" ry="22" fill="#000" fill-opacity=".43"/><g><path d="M128 202L307 181L340 119H390L413 178L582 196L589 217L410 218L381 258H338L311 218L137 222L128 202Z" fill="url(#a)" stroke="#111611" stroke-width="8"/><rect x="342" y="126" width="47" height="45" rx="10" fill="#A9C9D2" stroke="#46534D" stroke-width="5"/><path d="M226 192H493" stroke="#D7FF57" stroke-width="7" stroke-linecap="round"/><path d="M190 231C208 251 235 263 267 269" stroke="#D7FF57" stroke-opacity=".72" stroke-width="8" stroke-linecap="round"/><path d="M274 234C292 254 318 267 347 273" stroke="#D7FF57" stroke-opacity=".56" stroke-width="8" stroke-linecap="round"/><path d="M421 232C438 251 464 263 496 269" stroke="#D7FF57" stroke-opacity=".72" stroke-width="8" stroke-linecap="round"/><path d="M502 228C520 245 545 255 568 260" stroke="#D7FF57" stroke-opacity=".56" stroke-width="8" stroke-linecap="round"/><circle cx="364" cy="215" r="17" fill="#D7FF57" stroke="#172019" stroke-width="7"/></g></svg>