<svg width="720" height="360" viewBox="0 0 720 360" fill="none" xmlns="http://www.w3.org/2000/svg"><defs><linearGradient id="a" x1="170" y1="90" x2="535" y2="260"><stop stop-color="#F7F9F7"/><stop offset=".35" stop-color="#AAB5AF"/><stop offset=".72" stop-color="#4E5B52"/><stop offset="1" stop-color="#151B17"/></linearGradient><linearGradient id="g" x1="330" y1="115" x2="450" y2="235"><stop stop-color="#D7FF57"/><stop offset="1" stop-color="#6E921C"/></linearGradient><filter id="s" x="70" y="40" width="590" height="300"><feGaussianBlur in="SourceAlpha" stdDeviation="13"/><feOffset dy="16"/><feColorMatrix values="0 0 0 0 0 0 0 0 0 0 0 0 0 0 0 0 0 0 .62 0"/><feBlend in2="SourceGraphic"/></filter></defs><ellipse cx="360" cy="290" rx="235" ry="24" fill="#000" fill-opacity=".46"/><g><path d="M113 210L282 173L371 88L433 101L413 163L563 180L611 208L411 222L333 271L274 256L326 216L148 232L113 210Z" fill="url(#a)" stroke="#0D120E" stroke-width="9"/><path d="M235 187L490 171" stroke="url(#g)" stroke-width="8" stroke-linecap="round"/><path d="M424 106L469 76L490 86L447 126" fill="#DDE4DF" stroke="#182019" stroke-width="6"/><circle cx="396" cy="177" r="12" fill="#D7FF57" stroke="#142016" stroke-width="6"/><path d="M522 151L545 125L569 143L560 175" fill="#1C2721" stroke="#D7FF57" stroke-width="5"/><circle cx="546" cy="144" r="8" fill="#6DB6FF"/><path d="M286 204H389" stroke="#6DB6FF" stroke-width="5" stroke-linecap="round" stroke-dasharray="5 12"/></g></svg>