<svg width="720" height="360" viewBox="0 0 720 360" fill="none" xmlns="http://www.w3.org/2000/svg"><defs><linearGradient id="l" x1="235" y1="92" x2="479" y2="275"><stop stop-color="#D7FF57"/><stop offset=".45" stop-color="#78A72D"/><stop offset="1" stop-color="#26351F"/></linearGradient><linearGradient id="b" x1="257" y1="154" x2="455" y2="282"><stop stop-color="#C6CFC8"/><stop offset=".4" stop-color="#667169"/><stop offset="1" stop-color="#1C231E"/></linearGradient><filter id="s" x="120" y="45" width="480" height="300"><feGaussianBlur in="SourceAlpha" stdDeviation="13"/><feOffset dy="16"/><feColorMatrix values="0 0 0 0 0 0 0 0 0 0 0 0 0 0 0 0 0 0 .58 0"/><feBlend in2="SourceGraphic"/></filter></defs><ellipse cx="360" cy="292" rx="185" ry="23" fill="#000" fill-opacity=".46"/><g filter="url(#s)"><path d="M238 168C282 144 442 144 486 168L458 278H266L238 168Z" fill="url(#b)" stroke="#111611" stroke-width="8"/><path d="M253 180C310 194 414 194 470 180" stroke="#D7FF57" stroke-width="7" stroke-linecap="round"/><path d="M298 170C278 132 285 94 324 71C347 112 340 151 298 170Z" fill="url(#l)" stroke="#1D281A" stroke-width="6"/><path d="M352 165C335 119 352 79 395 61C410 110 394 149 352 165Z" fill="url(#l)" stroke="#1D281A" stroke-width="6"/><path d="M409 171C405 126 433 94 477 88C475 136 450 166 409 171Z" fill="url(#l)" stroke="#1D281A" stroke-width="6"/><path d="M306 151L326 91M363 149L390 82M420 153L463 108" stroke="#E2FF99" stroke-width="5" stroke-linecap="round"/><rect x="310" y="211" width="102" height="39" rx="12" fill="#111611" stroke="#D7FF57" stroke-opacity=".55" stroke-width="3"/><path d="M331 225H391" stroke="#D7FF57" stroke-width="6" stroke-linecap="round"/></g></svg>