<svg width="720" height="360" viewBox="0 0 720 360" fill="none" xmlns="http://www.w3.org/2000/svg"><defs><linearGradient id="m" x1="190" y1="115" x2="535" y2="267"><stop stop-color="#F0F3F1"/><stop offset=".36" stop-color="#929C96"/><stop offset="1" stop-color="#202722"/></linearGradient><linearGradient id="a" x1="242" y1="150" x2="470" y2="252"><stop stop-color="#D7FF57"/><stop offset="1" stop-color="#66881B"/></linearGradient><filter id="s" x="90" y="45" width="550" height="290"><feGaussianBlur in="SourceAlpha" stdDeviation="13"/><feOffset dy="16"/><feColorMatrix values="0 0 0 0 0 0 0 0 0 0 0 0 0 0 0 0 0 0 .6 0"/><feBlend in2="SourceGraphic"/></filter></defs><ellipse cx="360" cy="292" rx="220" ry="23" fill="#000" fill-opacity=".45"/><g filter="url(#s)"><rect x="176" y="147" width="367" height="118" rx="24" fill="url(#m)" stroke="#101510" stroke-width="9"/><rect x="196" y="164" width="96" height="61" rx="18" fill="#E8ECE9" stroke="#68736C" stroke-width="5"/><path d="M292 164H514V226H292V164Z" fill="url(#a)" fill-opacity=".88"/><path d="M176 221H543" stroke="#111611" stroke-width="9"/><path d="M205 263V286M516 263V286" stroke="#444D47" stroke-width="14" stroke-linecap="round"/><path d="M218 143V104H509V145" stroke="#343D37" stroke-width="14" stroke-linecap="round"/><path d="M240 121H486" stroke="#D7FF57" stroke-opacity=".6" stroke-width="6" stroke-linecap="round"/><circle cx="470" cy="101" r="34" fill="#D7FF57" fill-opacity=".9" stroke="#111611" stroke-width="7"/><path d="M483 82C469 87 460 101 462 116C464 128 472 136 484 138C468 147 446 139 439 121C432 101 442 80 461 73C469 70 477 70 483 72V82Z" fill="#111611"/></g></svg>